HIERARCHY
ROOT Hips
{
	OFFSET -3.958830 18.904000 13.208200
	CHANNELS 6 Xposition Yposition Zposition Zrotation Yrotation Xrotation 
	JOINT LHipJoint
	{
		OFFSET 0.000000 0.000000 0.000000
		CHANNELS 3 Zrotation Yrotation Xrotation
		JOINT LeftUpLeg
		{
			OFFSET 1.800000 -1.400000 0.085000
			CHANNELS 3 Zrotation Yrotation Xrotation
			JOINT LeftLeg
			{
				OFFSET 2.215000 -6.000000 0.000000
				CHANNELS 3 Zrotation Yrotation Xrotation
				JOINT LeftFoot
				{
					OFFSET 2.500000 -6.900000 0.000000
					CHANNELS 3 Zrotation Yrotation Xrotation
					JOINT LeftToeBase
					{
						OFFSET 0.200000 -0.500000 1.950000
						CHANNELS 3 Zrotation Yrotation Xrotation
						End Site
						{
							OFFSET 0.000000 0.000000 0.000000
						}
					}
				}
			}
		}
	}
	JOINT RHipJoint
	{
		OFFSET 0.000000 0.000000 0.000000
		CHANNELS 3 Zrotation Yrotation Xrotation
		JOINT RightUpLeg
		{
			OFFSET -1.800000 -1.400000 0.085000
			CHANNELS 3 Zrotation Yrotation Xrotation
			JOINT RightLeg
			{
				OFFSET -2.215000 -6.000000 0.000000
				CHANNELS 3 Zrotation Yrotation Xrotation
				JOINT RightFoot
				{
					OFFSET -2.500000 -6.900000 0.000000
					CHANNELS 3 Zrotation Yrotation Xrotation
					JOINT RightToeBase
					{
						OFFSET -0.200000 -0.500000 1.950000
						CHANNELS 3 Zrotation Yrotation Xrotation
						End Site
						{
							OFFSET 0.000000 0.000000 0.000000
						}
					}
				}
			}
		}
	}
	JOINT LowerBack
	{
		OFFSET 0.000000 0.000000 0.000000
		CHANNELS 3 Zrotation Yrotation Xrotation
		JOINT Spine
		{
			OFFSET -0.087000 1.940000 -0.288900
			CHANNELS 3 Zrotation Yrotation Xrotation
			JOINT Spine1
			{
				OFFSET 0.000000 1.950000 0.060000
				CHANNELS 3 Zrotation Yrotation Xrotation
				JOINT Neck
				{
					OFFSET 0.000000 0.000000 0.000000
					CHANNELS 3 Zrotation Yrotation Xrotation
					JOINT Neck1
					{
						OFFSET 0.000000 1.600000 0.340000
						CHANNELS 3 Zrotation Yrotation Xrotation
						JOINT Head
						{
							OFFSET 0.000000 1.667000 -0.240000
							CHANNELS 3 Zrotation Yrotation Xrotation
							End Site
							{
								OFFSET 0.000000 0.000000 0.000000
							}
						}
					}
				}
				JOINT LeftShoulder
				{
					OFFSET 0.000000 0.000000 0.000000
					CHANNELS 3 Zrotation Yrotation Xrotation
					JOINT LeftArm
					{
						OFFSET 2.700000 1.550000 -0.730000
						CHANNELS 3 Zrotation Yrotation Xrotation
						JOINT LeftForeArm
						{
							OFFSET 5.450000 0.000000 0.000000
							CHANNELS 3 Zrotation Yrotation Xrotation
							JOINT LeftHand
							{
								OFFSET 3.450000 0.000000 0.000000
								CHANNELS 3 Zrotation Yrotation Xrotation
								JOINT LeftHandIndex1
								{
									OFFSET 0.750000 0.000000 0.000000
									CHANNELS 3 Zrotation Yrotation Xrotation
									End Site
									{
										OFFSET 0.000000 0.000000 0.000000
									}
								}
							}
						}
					}
				}
				JOINT RightShoulder
				{
					OFFSET 0.000000 0.000000 0.000000
					CHANNELS 3 Zrotation Yrotation Xrotation
					JOINT RightArm
					{
						OFFSET -2.700000 1.550000 -0.730000
						CHANNELS 3 Zrotation Yrotation Xrotation
						JOINT RightForeArm
						{
							OFFSET -5.450000 0.000000 0.000000
							CHANNELS 3 Zrotation Yrotation Xrotation
							JOINT RightHand
							{
								OFFSET -3.450000 0.000000 0.000000
								CHANNELS 3 Zrotation Yrotation Xrotation
								JOINT RightHandIndex1
								{
									OFFSET -0.750000 0.000000 0.000000
									CHANNELS 3 Zrotation Yrotation Xrotation
									End Site
									{
										OFFSET 0.000000 0.000000 0.000000
									}
								}
							}
						}
					}
				}
			}
		}
	}
}
MOTION
Frames: 7
Frame Time: 0.016667
6.524510 17.231590 1.216620 -13.167577 -64.119144 9.389852 -15.402193 12.220360 3.966105 -9.171197 -5.458239 -32.669240 -3.266359 3.951372 14.078886 -0.353476 1.925905 3.715439 0.363790 0.420640 0.181660 18.206312 -10.227260 3.411213 8.697453 -1.246842 6.479586 15.206882 -10.991413 28.394700 -1.145423 -6.589556 2.094041 0.223400 -0.053620 0.012650 -3.127183 -1.694746 -7.854910 1.532718 5.782123 15.384930 6.673174 6.226654 11.575763 -2.405689 -5.958670 -9.036947 -16.511663 7.938928 52.212865 3.473530 -0.261890 -6.110490 -12.013032 0.839063 4.591536 -40.257428 0.966040 -4.297163 -64.218088 -68.095038 39.278592 -3.367019 3.735637 0.197120 -0.137400 0.178480 0.131840 17.237358 8.157931 3.658230 44.390302 14.334692 -3.443106 48.936550 68.743882 27.194000 2.508497 -1.765579 0.041960 0.147100 -0.132300 0.033430 
6.488110 17.251160 1.221730 -13.077902 -64.703838 9.480880 -15.412618 12.242936 3.966979 -9.047855 -5.475895 -32.943434 -3.057486 4.002819 14.742085 -0.356239 1.972541 3.688209 0.378470 0.437310 0.192020 18.195895 -10.215741 3.390552 8.320316 -1.219578 6.662916 15.260335 -10.974909 28.143694 -1.147904 -6.577198 2.093515 0.233000 -0.065250 0.016260 -3.111141 -1.765270 -7.826535 1.365369 5.482383 15.170375 6.584011 5.895240 11.789379 -2.310684 -6.400149 -9.260166 -17.545209 8.874677 52.531830 3.061740 0.178270 -6.378490 -11.747012 0.565189 4.931526 -41.648877 1.102187 -4.392871 -65.545957 -66.666927 39.022496 -3.355592 3.736294 0.205240 -0.143460 0.188260 0.131590 16.825782 8.736060 3.519576 44.274292 15.760437 -2.931039 47.425049 67.552809 25.972886 2.494608 -1.758012 0.046290 0.145840 -0.135300 0.029720 
6.451060 17.267940 1.229830 -12.663336 -65.252881 9.333222 -15.423185 12.247946 3.971328 -9.081750 -5.504447 -33.081343 -2.915154 4.022545 15.087082 -0.361239 1.993865 3.672206 0.384500 0.442500 0.203050 18.186013 -10.217629 3.366950 7.896112 -1.218377 6.919513 15.201028 -10.881525 27.696956 -1.139788 -6.541298 2.100800 0.236610 -0.077550 0.017520 -3.094832 -1.785123 -7.798337 1.188372 5.341609 14.859383 6.407475 5.727093 11.949164 -2.100090 -6.605733 -9.438985 -18.059469 9.541751 53.101228 2.509080 0.595230 -6.354330 -11.790630 0.274407 5.127823 -42.894326 1.185186 -4.572070 -65.780849 -64.745423 37.718349 -3.347366 3.726980 0.210910 -0.146860 0.194310 0.125340 16.504524 9.173225 3.464945 44.281672 16.781322 -2.436920 47.187611 66.846924 25.655906 2.494431 -1.748113 0.047750 0.142290 -0.135190 0.022580 
6.416660 17.281890 1.237510 -12.066554 -65.633343 9.021634 -15.430806 12.239743 3.988907 -9.214711 -5.576532 -33.281434 -2.745931 4.039319 15.501405 -0.364146 2.017460 3.656536 0.388100 0.442010 0.215600 18.178006 -10.228141 3.347867 7.490110 -1.261984 7.210496 15.086098 -10.729333 27.044101 -1.125825 -6.481068 2.115384 0.236860 -0.090230 0.019420 -3.088861 -1.772593 -7.784273 1.112260 5.252465 14.702443 6.087441 5.640946 11.958018 -1.841544 -6.677221 -9.525533 -18.273748 9.949915 53.808122 1.954080 0.819640 -6.225860 -12.303869 -0.014425 5.143913 -43.705987 1.321433 -4.876316 -64.873618 -62.383653 35.418253 -3.343935 3.703455 0.216280 -0.150490 0.199950 0.117890 16.535473 9.522135 3.445395 44.361565 17.481009 -2.021903 47.771900 66.560221 25.943750 2.503577 -1.739076 0.049050 0.137500 -0.135000 0.015030 
6.381640 17.294160 1.245360 -11.366293 -65.988013 8.576974 -15.436098 12.224148 4.009654 -9.415074 -5.649961 -33.440359 -2.594208 4.053432 15.892698 -0.369574 2.040280 3.643114 0.396240 0.445100 0.234230 18.171240 -10.245812 3.335909 7.150841 -1.300119 7.547074 14.850912 -10.533844 26.389875 -1.115590 -6.414808 2.132592 0.238530 -0.104470 0.023870 -3.087376 -1.730995 -7.780609 1.070900 5.246702 14.701460 5.614595 5.665339 11.798525 -1.528581 -6.639046 -9.453821 -18.127462 10.132824 54.312000 1.330170 1.017710 -6.401180 -13.327392 -0.208086 4.944937 -44.179175 1.465791 -5.313724 -62.468407 -59.736172 32.078943 -3.345430 3.660641 0.225850 -0.154910 0.209810 0.111620 16.934152 9.726266 3.406395 44.543183 17.984760 -1.653803 48.743529 66.648653 26.595527 2.513959 -1.728460 0.050750 0.135350 -0.137200 0.005910 
6.346440 17.303850 1.253820 -10.806378 -66.260039 8.197768 -15.438239 12.215222 4.034356 -9.605571 -5.732444 -33.632188 -2.330707 4.067231 16.508833 -0.369242 2.072426 3.622261 0.408720 0.455470 0.254300 18.165470 -10.259056 3.336555 6.918004 -1.347275 7.904746 14.653208 -10.367239 25.799583 -1.112684 -6.358095 2.144711 0.241900 -0.125370 0.028310 -3.090134 -1.701962 -7.794481 1.184472 5.182760 14.869657 5.010573 5.662473 11.458583 -1.164339 -6.610657 -9.406482 -18.025903 10.407842 54.825277 0.764390 1.229210 -6.649290 -14.729210 -0.607515 4.671218 -44.477809 1.592386 -5.955906 -57.639189 -56.455220 27.117109 -3.343886 3.598944 0.236560 -0.164410 0.224880 0.106230 17.595851 10.112510 3.468178 44.555311 18.288163 -1.333051 50.493240 66.885495 27.735415 2.535336 -1.717369 0.056810 0.129470 -0.143250 -0.001860 
6.311560 17.307730 1.260710 -10.338105 -66.393646 7.916745 -15.436902 12.187636 4.077564 -9.863683 -5.889226 -34.048220 -1.897678 4.066151 17.400862 -0.369348 2.122465 3.594829 0.413560 0.456220 0.268760 18.164527 -10.268458 3.347552 6.822899 -1.393930 8.230424 14.548439 -10.244505 25.271062 -1.109043 -6.315019 2.154220 0.241900 -0.143410 0.028980 -3.116502 -1.652926 -7.828142 1.493893 5.092696 15.099877 4.215899 5.673920 11.004619 -0.748305 -6.602824 -9.422610 -17.985767 10.655594 55.302617 0.182720 1.345230 -6.736180 -16.220546 -1.172942 4.376261 -44.753506 1.601911 -6.644955 -50.822265 -52.807682 21.382152 -3.346840 3.517022 0.246700 -0.172100 0.234100 0.098090 18.232496 10.648530 3.655345 44.475138 18.457483 -1.076751 52.344414 67.403098 29.051669 2.557960 -1.701973 0.058100 0.124860 -0.144300 -0.011120 
